<svg width="247" height="12" viewBox="0 0 247 12" fill="none" xmlns="http://www.w3.org/2000/svg">
<path d="M27.6192 11.811C26.9213 11.811 26.325 11.2759 26.2708 10.5646C26.2098 9.81953 26.7655 9.16248 27.5109 9.10152C69.4275 5.66045 111.818 3.82475 154.264 3.61476C134.762 3.19479 115.349 3.03222 96.1861 2.86288C64.9892 2.5987 32.7284 2.32098 1.49085 5.47078C0.738707 5.54529 0.0813878 5.00338 0.00685129 4.25827C-0.0676852 3.51316 0.474425 2.84932 1.21979 2.77481C32.6064 -0.39531 64.9418 -0.117582 96.2132 0.153368C145.177 0.573342 195.808 1.00686 245.368 5.64689C246.099 5.71463 246.648 6.35814 246.594 7.08971C246.54 7.82128 245.903 8.37672 245.178 8.34285C172.681 4.73921 99.5199 5.9043 27.7345 11.7975C27.6938 11.7975 27.6599 11.7975 27.6192 11.7975V11.811Z" fill="black"/>
</svg>
