<svg width="180" height="16" viewBox="0 0 180 16" fill="none" xmlns="http://www.w3.org/2000/svg">
<path d="M14.9133 15.5339C14.3627 15.5339 13.8121 15.4915 13.2563 15.4069C7.45391 14.486 3.4621 8.97139 0.169154 3.88017C-0.148493 3.38798 -0.00549998 2.73172 0.486853 2.41948C0.979206 2.10194 1.63568 2.24482 1.94803 2.737C4.98686 7.44718 8.64508 12.5384 13.5845 13.3217C17.2798 13.9091 20.9168 12.0092 24.951 9.66469L34.7133 3.98069C36.5027 2.9381 38.7315 1.64148 41.1668 1.70499C44.6292 1.78967 47.1174 4.35646 49.5157 6.83856C51.1886 8.56387 52.9198 10.3527 54.8839 11.1571C58.5686 12.6602 63.0527 10.8819 68.6062 5.71129C71.6768 2.85343 75.4992 -0.708308 80.0045 0.122589C82.8898 0.657115 84.9915 2.82698 87.0139 4.92804C87.8451 5.7854 88.7027 6.67451 89.5815 7.40485C93.7374 10.8555 99.6086 11.3741 104.183 8.69088C105.66 7.82294 106.983 6.67452 108.381 5.46257C109.318 4.64755 110.292 3.80604 111.314 3.05453C114.602 0.646518 117.91 -0.142036 120.642 0.842339C123.215 1.7685 124.909 4.02303 126.545 6.19818C127.789 7.85468 128.965 9.41594 130.463 10.3897C134.031 12.7078 138.542 10.9295 140.315 10.0563C142.041 9.20954 143.719 8.09285 145.339 7.00792C146.906 5.96533 148.526 4.88571 150.236 4.00718C159.935 -0.962326 172.059 1.36101 179.719 9.66469C180.116 10.0934 180.09 10.7655 179.656 11.1624C179.222 11.5593 178.554 11.5329 178.157 11.0989C171.143 3.4938 160.057 1.35042 151.194 5.89125C149.59 6.71156 148.023 7.75944 146.504 8.77028C144.826 9.88696 143.089 11.046 141.236 11.9562C136.8 14.1367 132.448 14.2108 129.298 12.1627C127.487 10.9878 126.143 9.19895 124.84 7.46835C123.326 5.45197 121.892 3.54143 119.912 2.82696C117.153 1.83201 114.114 3.60495 112.553 4.75338C111.6 5.45197 110.663 6.26701 109.752 7.05557C108.344 8.2781 106.883 9.54824 105.236 10.5114C99.8945 13.6445 93.0492 13.0518 88.2104 9.0296C87.2415 8.22516 86.3468 7.29372 85.4733 6.39403C83.5939 4.44645 81.8204 2.60998 79.6021 2.20247C76.1451 1.56739 72.7569 4.72162 70.0304 7.25665C63.8098 13.0465 58.5898 14.9623 54.0633 13.11C51.6862 12.1362 49.7962 10.1886 47.9751 8.30455C45.7727 6.02885 43.6921 3.88014 41.0927 3.81663C41.0557 3.81663 41.0186 3.81663 40.9816 3.81663C39.1816 3.81663 37.3657 4.8751 35.7563 5.80655L25.9939 11.4905C23.0027 13.2317 19.0374 15.5392 14.8921 15.5392L14.9133 15.5339Z" fill="black"/>
</svg>
